<svg width="150.55504150390624px" height="40px" xmlns="http://www.w3.org/2000/svg" viewBox="36.72247924804688 21.30997772216797 426.55504150390624 107.38004455566406" style="background: rgba(0, 0, 0, 0);" preserveAspectRatio="xMidYMid"><defs><filter id="editing-hole" x="-100%" y="-100%" width="300%" height="300%"><feFlood flood-color="#000" result="black"></feFlood><feMorphology operator="dilate" radius="2" in="SourceGraphic" result="erode"></feMorphology><feGaussianBlur in="erode" stdDeviation="4" result="blur"></feGaussianBlur><feOffset in="blur" dx="2" dy="2" result="offset"></feOffset><feComposite operator="atop" in="offset" in2="black" result="merge"></feComposite><feComposite operator="in" in="merge" in2="SourceGraphic" result="inner-shadow"></feComposite></filter></defs><g filter="url(#editing-hole)"><g transform="translate(99.21500873565674, 95.86499977111816)"><path d="M20.80-41.28L20.80-41.28Q29.57-41.28 34.24-36.29L34.24-36.29L34.24-36.29Q38.91-31.30 38.91-21.95L38.91-21.95L38.91-21.95Q38.91-11.14 33.86-5.38L33.86-5.38L33.86-5.38Q28.80 0.38 19.33 0.38L19.33 0.38L19.33 0.38Q16.70 0.38 12.96 0.29L12.96 0.29L12.96 0.29Q9.22 0.19 6.02 0L6.02 0L5.95 0L6.27-12.35L5.95-41.02L6.02-41.02L20.80-41.28ZM20.16-3.90L20.16-3.90Q26.69-3.90 30.18-8.16L30.18-8.16L30.18-8.16Q33.66-12.42 33.66-20.86L33.66-20.86L33.66-20.86Q33.66-36.99 20.42-36.99L20.42-36.99L20.42-36.99Q16.38-36.99 11.14-36.74L11.14-36.74L10.88-12.80L11.07-4.29L11.07-4.29Q13.06-4.10 15.84-4L15.84-4L15.84-4Q18.62-3.90 20.16-3.90L20.16-3.90ZM51.90-31.87L51.71-9.98L51.84 0L47.10 0L47.30-9.60L47.10-31.87L51.90-31.87ZM78.34-12.86L78.34-12.86Q82.24-6.91 86.98-1.15L86.98-1.15L86.91-0.51L86.91-0.51Q84.22 0.32 82.50 0.45L82.50 0.45L81.66-0.06L81.66-0.06Q76.80-7.42 74.30-11.65L74.30-11.65L68.29-11.58L68.29-9.98L68.42 0L63.68 0L63.87-9.60L63.68-31.87L74.56-31.94L74.56-31.94Q79.62-31.94 82.34-29.57L82.34-29.57L82.34-29.57Q85.06-27.20 85.06-22.72L85.06-22.72L85.06-22.72Q85.06-19.46 83.30-16.90L83.30-16.90L83.30-16.90Q81.54-14.34 78.34-12.86L78.34-12.86ZM68.42-28.03L68.35-15.55L74.37-15.36L74.37-15.36Q80.06-16.96 80.06-22.34L80.06-22.34L80.06-22.34Q80.06-25.15 78.40-26.56L78.40-26.56L78.40-26.56Q76.74-27.97 73.34-28.10L73.34-28.10L68.42-28.03ZM109.06-31.87L120.26 0L115.46 0L114.69-3.46L113.02-8.19L105.41-8.26L98.62-8.19L96.90-3.71L96 0L91.26 0L103.55-31.87L109.06-31.87ZM105.79-12.03L111.68-12.10L106.37-27.20L105.98-27.20L100.16-12.10L105.79-12.03ZM139.71-32.19L139.71-32.19Q145.02-32.19 148.93-29.95L148.93-29.95L148.03-25.54L147.46-25.34L147.46-25.34Q145.86-26.69 143.74-27.46L143.74-27.46L143.74-27.46Q141.63-28.22 139.20-28.22L139.20-28.22L139.20-28.22Q134.46-28.22 131.97-25.18L131.97-25.18L131.97-25.18Q129.47-22.14 129.47-16.13L129.47-16.13L129.47-16.13Q129.47-10.05 131.97-6.85L131.97-6.85L131.97-6.85Q134.46-3.65 139.20-3.65L139.20-3.65L139.20-3.65Q141.50-3.65 143.84-4.45L143.84-4.45L143.84-4.45Q146.18-5.25 148.03-6.59L148.03-6.59L148.61-6.40L148.16-1.98L148.16-1.98Q143.81 0.38 139.01 0.38L139.01 0.38L139.01 0.38Q131.97 0.38 128.19-3.81L128.19-3.81L128.19-3.81Q124.42-8 124.42-15.74L124.42-15.74L124.42-15.74Q124.42-23.62 128.42-27.90L128.42-27.90L128.42-27.90Q132.42-32.19 139.71-32.19L139.71-32.19ZM188.80-41.15L188.48-12.03L188.61 0L183.23 0L161.98-32.83L161.66-32.83L161.60-13.50L161.66 0L157.06 0L157.25-12.16L157.12-41.02L162.43-41.02L183.62-8.19L184.06-8.19L184-40.77L188.80-41.15ZM211.46-3.84L219.97-4.10L220.35-3.71L219.90 0L200.51 0L200.70-9.60L200.51-31.87L220.03-31.87L220.35-31.49L219.97-27.78L211.90-28.03L205.25-27.97L205.18-18.30L211.52-18.24L217.09-18.43L217.41-17.98L217.02-14.21L211.14-14.40L205.18-14.34L205.12-9.98L205.18-3.90L211.46-3.84ZM270.53-31.87L258.62 0L253.50 0L247.23-17.41L246.85-17.41L240.26 0L235.14 0L224.70-31.87L229.50-31.87L230.08-28.48L237.89-5.31L238.21-5.31L245.18-23.94L242.56-31.87L247.55-31.87L248.26-28.10L256.06-5.31L256.45-5.31L265.09-28.22L265.86-31.87L270.53-31.87ZM286.91-32.19L286.91-32.19Q290.82-32.19 294.72-30.66L294.72-30.66L293.89-25.92L293.12-25.73L293.12-25.73Q291.33-27.14 289.73-27.81L289.73-27.81L289.73-27.81Q288.13-28.48 286.40-28.48L286.40-28.48L286.40-28.48Q283.65-28.48 282.05-27.04L282.05-27.04L282.05-27.04Q280.45-25.60 280.45-23.74L280.45-23.74L280.45-23.74Q280.45-21.89 282.02-20.74L282.02-20.74L282.02-20.74Q283.58-19.58 286.85-18.18L286.85-18.18L286.85-18.18Q289.73-16.90 291.42-15.87L291.42-15.87L291.42-15.87Q293.12-14.85 294.37-13.15L294.37-13.15L294.37-13.15Q295.62-11.46 295.62-9.02L295.62-9.02L295.62-9.02Q295.62-6.53 294.27-4.38L294.27-4.38L294.27-4.38Q292.93-2.24 290.34-0.93L290.34-0.93L290.34-0.93Q287.74 0.38 284.16 0.38L284.16 0.38L284.16 0.38Q281.92 0.38 279.46-0.16L279.46-0.16L279.46-0.16Q276.99-0.70 274.88-1.79L274.88-1.79L275.46-6.85L276.10-7.10L276.10-7.10Q277.89-5.31 280.29-4.32L280.29-4.32L280.29-4.32Q282.69-3.33 284.74-3.33L284.74-3.33L284.74-3.33Q287.42-3.33 289.15-4.77L289.15-4.77L289.15-4.77Q290.88-6.21 290.88-8.26L290.88-8.26L290.88-8.26Q290.88-10.18 289.31-11.33L289.31-11.33L289.31-11.33Q287.74-12.48 284.42-14.02L284.42-14.02L284.42-14.02Q281.66-15.23 279.90-16.26L279.90-16.26L279.90-16.26Q278.14-17.28 276.93-18.98L276.93-18.98L276.93-18.98Q275.71-20.67 275.71-23.10L275.71-23.10L275.71-23.10Q275.71-25.66 277.09-27.71L277.09-27.71L277.09-27.71Q278.46-29.76 280.99-30.98L280.99-30.98L280.99-30.98Q283.52-32.19 286.91-32.19L286.91-32.19Z" fill="#ccc"></path></g></g><style>text {
  font-size: 64px;
  font-family: 'Barlow', sans-serif;
  dominant-baseline: central;
  text-anchor: middle;
}</style></svg>